<svg width="24" height="24" viewBox="0 0 24 24" fill="none" xmlns="http://www.w3.org/2000/svg">
<path fill-rule="evenodd" clip-rule="evenodd" d="M11.95 19.938C12.04 19.9793 12.15 20 12.25 20C12.39 20 12.54 19.9484 12.66 19.8761C12.87 19.7315 13 19.4836 13 19.2254V4.76682C13 4.49831 12.86 4.2711 12.65 4.12651C12.44 3.98193 12.17 3.96127 11.94 4.06455L4.99 7.25577C4.48 7.48298 3.93 7.60691 3.37 7.60691H1.75C1.34 7.60691 1 7.95804 1 8.38147V15.6108C1 16.0342 1.34 16.3853 1.75 16.3853H3.37C3.93 16.3853 4.48 16.499 4.99 16.7365L11.95 19.938ZM3.69 14.8362H3C2.72 14.8362 2.5 14.5987 2.5 14.3198V9.67242C2.5 9.38325 2.72 9.15604 3 9.15604H3.69C4.25 9.15604 4.8 9.03211 5.31 8.79458L10.8 6.27465C11.13 6.13006 11.5 6.37792 11.5 6.74972V17.2322C11.5 17.604 11.13 17.8622 10.8 17.7073L5.31 15.1873C4.8 14.9601 4.25 14.8362 3.69 14.8362ZM19.55 17.1496C19.29 17.4181 19.29 17.8519 19.55 18.1204C19.81 18.3786 20.23 18.3786 20.49 18.1101C23.84 14.6503 23.84 9.01147 20.49 5.55173C20.23 5.28321 19.81 5.28321 19.55 5.55173C19.29 5.82025 19.29 6.254 19.55 6.52252C22.39 9.45555 22.39 14.2166 19.55 17.1496ZM17.19 15.6727C16.93 15.4042 16.93 14.9704 17.19 14.7019C18.72 13.1218 18.72 10.5399 17.19 8.95978C16.93 8.69126 16.93 8.2575 17.19 7.98899C17.45 7.72047 17.87 7.72047 18.13 7.98899C20.18 10.1061 20.18 13.5556 18.13 15.6727C17.86 15.9412 17.44 15.9412 17.19 15.6727ZM14.82 12.2645C14.56 12.5331 14.56 12.9668 14.82 13.2353C15.08 13.5039 15.5 13.5039 15.76 13.225C16.51 12.4504 16.51 11.2008 15.76 10.4262C15.5 10.1577 15.08 10.1577 14.82 10.4262C14.56 10.6948 14.56 11.1285 14.82 11.397C15.05 11.6346 15.05 12.027 14.82 12.2645Z" fill="#000000"/>
</svg>
