<svg width="24" height="24" viewBox="0 0 24 24" fill="none" xmlns="http://www.w3.org/2000/svg">
<path fill-rule="evenodd" clip-rule="evenodd" d="M20.47 3.16663C20.15 2.90662 19.68 2.95662 19.42 3.27662L6.42004 19.2766C6.16004 19.5966 6.21004 20.0666 6.53004 20.3266C6.67004 20.4466 6.83004 20.4966 7.00004 20.4966C7.22004 20.4966 7.43004 20.4066 7.58004 20.2166L20.58 4.21663C20.84 3.89663 20.79 3.42662 20.47 3.16663ZM7.55 16.3065L8.57 15.0465L8.31 14.9265C7.8 14.6965 7.25 14.5765 6.69 14.5765H6C5.72 14.5765 5.5 14.3365 5.5 14.0565V9.41652C5.5 9.12652 5.72 8.89652 6 8.89652H6.69C7.25 8.89652 7.8 8.77652 8.31 8.53652L13.8 6.02652C14.13 5.88652 14.5 6.12652 14.5 6.50652V7.74652L16 5.88652V4.51652C16 4.24652 15.86 4.01652 15.65 3.87652C15.44 3.73652 15.17 3.70652 14.94 3.81652L7.99 7.00652C7.48 7.22652 6.93 7.35652 6.37 7.35652H4.75C4.34 7.35652 4 7.70652 4 8.12652V15.3565C4 15.7765 4.34 16.1265 4.75 16.1265H6.37C6.77 16.1365 7.17 16.1865 7.55 16.3065ZM13.8 17.4567C14.13 17.6067 14.5 17.3467 14.5 16.9767V13.1767L16 11.3267V18.9767C16 19.2367 15.87 19.4867 15.66 19.6267C15.54 19.6967 15.39 19.7467 15.25 19.7467C15.15 19.7467 15.04 19.7267 14.95 19.6867L10.78 17.7667L11.78 16.5267L13.8 17.4567Z" fill="#000000"/>
</svg>
